HIERARCHY
ROOT Hips
{
  OFFSET 0.00000 0.00000 0.05000
  CHANNELS 6 Xposition Yposition Zposition Zrotation Xrotation Yrotation
  JOINT J1
  {
    OFFSET -0.03065 0.05000 1.44491
    CHANNELS 3 Zrotation Xrotation Yrotation
    JOINT J0
    {
      OFFSET 0.01581 0.05000 0.59036
      CHANNELS 3 Zrotation Xrotation Yrotation
    }
    JOINT J2
    {
      OFFSET -0.46106 0.05000 0.00773
      CHANNELS 3 Zrotation Xrotation Yrotation
      JOINT J3
      {
        OFFSET -0.18187 0.05000 -0.68062
        CHANNELS 3 Zrotation Xrotation Yrotation
        JOINT J4
        {
          OFFSET -0.04489 0.05000 -0.59788
          CHANNELS 3 Zrotation Xrotation Yrotation
        }
      }
    }
    JOINT J5
    {
      OFFSET 0.43895 0.05000 -0.00024
      CHANNELS 3 Zrotation Xrotation Yrotation
      JOINT J6
      {
        OFFSET 0.18944 0.05000 -0.67310
        CHANNELS 3 Zrotation Xrotation Yrotation
        JOINT J7
        {
          OFFSET 0.07576 0.05000 -0.63575
          CHANNELS 3 Zrotation Xrotation Yrotation
        }
      }
    }
  }
  JOINT J9
  {
    OFFSET -0.31013 0.05000 -0.00768
    CHANNELS 3 Zrotation Xrotation Yrotation
    JOINT J10
    {
      OFFSET 0.01518 0.05000 -1.05887
      CHANNELS 3 Zrotation Xrotation Yrotation
      JOINT J11
      {
        OFFSET 0.00780 0.05000 -0.96134
        CHANNELS 3 Zrotation Xrotation Yrotation
      }
    }
  }
  JOINT J12
  {
    OFFSET 0.27274 0.05000 0.00729
    CHANNELS 3 Zrotation Xrotation Yrotation
    JOINT J13
    {
      OFFSET 0.12064 0.05000 -1.05932
      CHANNELS 3 Zrotation Xrotation Yrotation
      JOINT J14
      {
        OFFSET 0.04567 0.05000 -0.95305
        CHANNELS 3 Zrotation Xrotation Yrotation
      }
    }
  }
}
MOTION
Frames: 22
Frame Time: 0.033333
2.40315 0.05000 -5.17203 0 0 0 -1.22 0.00 0.00 1.53 0.00 0.00 -89.04 0.00 0.00 -165.04 0.00 0.00 -175.71 0.00 0.00 90.03 0.00 0.00 164.28 0.00 0.00 173.20 0.00 0.00 -91.42 0.00 0.00 179.18 0.00 0.00 179.54 0.00 0.00 88.47 0.00 0.00 173.50 0.00 0.00 177.26 0.00 0.00
2.41056 0.05000 -5.16821 0 0 0 -1.36 0.00 0.00 1.16 0.00 0.00 -89.27 0.00 0.00 -164.36 0.00 0.00 -173.45 0.00 0.00 90.02 0.00 0.00 163.91 0.00 0.00 172.85 0.00 0.00 -91.08 0.00 0.00 179.38 0.00 0.00 179.66 0.00 0.00 88.86 0.00 0.00 174.20 0.00 0.00 177.26 0.00 0.00
2.41511 0.05000 -5.16584 0 0 0 -1.45 0.00 0.00 0.93 0.00 0.00 -89.41 0.00 0.00 -163.92 0.00 0.00 -170.60 0.00 0.00 90.02 0.00 0.00 163.68 0.00 0.00 172.26 0.00 0.00 -90.87 0.00 0.00 179.50 0.00 0.00 179.73 0.00 0.00 89.11 0.00 0.00 174.63 0.00 0.00 177.01 0.00 0.00
2.42417 0.05000 -5.16134 0 0 0 -1.45 0.00 0.00 0.48 0.00 0.00 -89.96 0.00 0.00 -162.16 0.00 0.00 -165.89 0.00 0.00 90.00 0.00 0.00 163.23 0.00 0.00 170.69 0.00 0.00 -90.85 0.00 0.00 179.27 0.00 0.00 -179.74 0.00 0.00 89.99 0.00 0.00 175.59 0.00 0.00 177.03 0.00 0.00
2.43328 0.05000 -5.15244 0 0 0 -1.46 0.00 0.00 0.03 0.00 0.00 -89.98 0.00 0.00 -159.90 0.00 0.00 -158.94 0.00 0.00 89.42 0.00 0.00 163.21 0.00 0.00 170.28 0.00 0.00 -91.63 0.00 0.00 179.27 0.00 0.00 -179.20 0.00 0.00 89.98 0.00 0.00 176.58 0.00 0.00 177.05 0.00 0.00
2.44237 0.05000 -5.14789 0 0 0 -1.63 0.00 0.00 0.02 0.00 0.00 -90.52 0.00 0.00 -157.11 0.00 0.00 -148.68 0.00 0.00 89.42 0.00 0.00 162.62 0.00 0.00 169.82 0.00 0.00 -91.65 0.00 0.00 179.26 0.00 0.00 -178.42 0.00 0.00 89.98 0.00 0.00 177.31 0.00 0.00 177.33 0.00 0.00
2.44725 0.05000 -5.14786 0 0 0 -1.64 0.00 0.00 0.43 0.00 0.00 -90.54 0.00 0.00 -153.59 0.00 0.00 -135.42 0.00 0.00 89.42 0.00 0.00 162.04 0.00 0.00 169.74 0.00 0.00 -91.69 0.00 0.00 179.03 0.00 0.00 -177.38 0.00 0.00 89.99 0.00 0.00 177.80 0.00 0.00 177.59 0.00 0.00
2.45632 0.05000 -5.14798 0 0 0 -1.64 0.00 0.00 0.44 0.00 0.00 -90.54 0.00 0.00 -148.88 0.00 0.00 -119.85 0.00 0.00 89.42 0.00 0.00 161.79 0.00 0.00 169.67 0.00 0.00 -91.73 0.00 0.00 178.79 0.00 0.00 -176.36 0.00 0.00 89.98 0.00 0.00 178.28 0.00 0.00 178.11 0.00 0.00
2.46543 0.05000 -5.14803 0 0 0 -1.81 0.00 0.00 0.43 0.00 0.00 -90.54 0.00 0.00 -143.85 0.00 0.00 -100.57 0.00 0.00 89.44 0.00 0.00 161.22 0.00 0.00 170.39 0.00 0.00 -91.79 0.00 0.00 179.03 0.00 0.00 -175.82 0.00 0.00 89.98 0.00 0.00 178.53 0.00 0.00 178.13 0.00 0.00
2.47454 0.05000 -5.15242 0 0 0 -1.98 0.00 0.00 0.42 0.00 0.00 -91.08 0.00 0.00 -137.89 0.00 0.00 -83.68 0.00 0.00 90.56 0.00 0.00 160.45 0.00 0.00 171.19 0.00 0.00 -90.97 0.00 0.00 179.50 0.00 0.00 -175.31 0.00 0.00 89.99 0.00 0.00 178.53 0.00 0.00 178.39 0.00 0.00
2.48359 0.05000 -5.15693 0 0 0 -1.98 0.00 0.00 -0.03 0.00 0.00 -91.08 0.00 0.00 -131.24 0.00 0.00 -71.42 0.00 0.00 90.57 0.00 0.00 160.10 0.00 0.00 172.05 0.00 0.00 -90.98 0.00 0.00 179.75 0.00 0.00 -174.80 0.00 0.00 90.00 0.00 0.00 179.00 0.00 0.00 178.15 0.00 0.00
2.49255 0.05000 -5.15715 0 0 0 -1.98 0.00 0.00 -0.94 0.00 0.00 -91.60 0.00 0.00 -124.92 0.00 0.00 -61.55 0.00 0.00 91.12 0.00 0.00 160.30 0.00 0.00 172.53 0.00 0.00 -91.85 0.00 0.00 180.00 0.00 0.00 -174.52 0.00 0.00 90.79 0.00 0.00 179.24 0.00 0.00 177.92 0.00 0.00
2.49718 0.05000 -5.15720 0 0 0 -1.98 0.00 0.00 -1.41 0.00 0.00 -91.60 0.00 0.00 -119.25 0.00 0.00 -53.61 0.00 0.00 91.67 0.00 0.00 159.86 0.00 0.00 172.94 0.00 0.00 -91.87 0.00 0.00 -179.76 0.00 0.00 -174.51 0.00 0.00 90.80 0.00 0.00 179.47 0.00 0.00 177.67 0.00 0.00
2.50170 0.05000 -5.15727 0 0 0 -1.99 0.00 0.00 -1.86 0.00 0.00 -91.58 0.00 0.00 -114.44 0.00 0.00 -46.52 0.00 0.00 91.69 0.00 0.00 159.86 0.00 0.00 172.96 0.00 0.00 -91.86 0.00 0.00 -179.76 0.00 0.00 -174.28 0.00 0.00 90.81 0.00 0.00 179.71 0.00 0.00 177.66 0.00 0.00
2.50186 0.05000 -5.15736 0 0 0 -1.82 0.00 0.00 -2.29 0.00 0.00 -91.05 0.00 0.00 -111.39 0.00 0.00 -38.22 0.00 0.00 91.17 0.00 0.00 159.97 0.00 0.00 172.52 0.00 0.00 -91.85 0.00 0.00 -179.99 0.00 0.00 -174.28 0.00 0.00 90.80 0.00 0.00 179.94 0.00 0.00 177.39 0.00 0.00
2.50194 0.05000 -5.15723 0 0 0 -1.83 0.00 0.00 -2.27 0.00 0.00 -90.52 0.00 0.00 -109.61 0.00 0.00 -27.54 0.00 0.00 91.19 0.00 0.00 159.97 0.00 0.00 172.07 0.00 0.00 -90.95 0.00 0.00 -179.99 0.00 0.00 -174.31 0.00 0.00 90.80 0.00 0.00 179.94 0.00 0.00 177.39 0.00 0.00
2.50193 0.05000 -5.15702 0 0 0 -2.00 0.00 0.00 -1.81 0.00 0.00 -90.01 0.00 0.00 -108.23 0.00 0.00 -15.78 0.00 0.00 90.66 0.00 0.00 159.89 0.00 0.00 171.56 0.00 0.00 -90.04 0.00 0.00 -180.00 0.00 0.00 -174.36 0.00 0.00 90.04 0.00 0.00 179.95 0.00 0.00 177.38 0.00 0.00
2.50183 0.05000 -5.15706 0 0 0 -2.16 0.00 0.00 -1.35 0.00 0.00 -90.00 0.00 0.00 -107.37 0.00 0.00 -2.79 0.00 0.00 90.68 0.00 0.00 159.90 0.00 0.00 171.94 0.00 0.00 -90.94 0.00 0.00 179.76 0.00 0.00 -174.12 0.00 0.00 90.03 0.00 0.00 179.95 0.00 0.00 177.38 0.00 0.00
2.50171 0.05000 -5.15714 0 0 0 -2.16 0.00 0.00 -1.33 0.00 0.00 -90.00 0.00 0.00 -106.38 0.00 0.00 10.84 0.00 0.00 91.23 0.00 0.00 159.79 0.00 0.00 172.37 0.00 0.00 -91.80 0.00 0.00 179.76 0.00 0.00 -174.36 0.00 0.00 90.02 0.00 0.00 179.95 0.00 0.00 177.37 0.00 0.00
2.50159 0.05000 -5.15717 0 0 0 -2.15 0.00 0.00 -0.89 0.00 0.00 -89.99 0.00 0.00 -105.42 0.00 0.00 22.42 0.00 0.00 91.79 0.00 0.00 159.80 0.00 0.00 172.77 0.00 0.00 -92.68 0.00 0.00 180.00 0.00 0.00 -174.37 0.00 0.00 90.02 0.00 0.00 179.95 0.00 0.00 177.38 0.00 0.00
2.50146 0.05000 -5.15717 0 0 0 -2.14 0.00 0.00 -0.46 0.00 0.00 -89.96 0.00 0.00 -104.57 0.00 0.00 30.09 0.00 0.00 92.33 0.00 0.00 160.14 0.00 0.00 173.16 0.00 0.00 -92.69 0.00 0.00 -179.77 0.00 0.00 -174.84 0.00 0.00 90.02 0.00 0.00 179.95 0.00 0.00 177.38 0.00 0.00
2.50134 0.05000 -5.15723 0 0 0 -1.96 0.00 0.00 -0.46 0.00 0.00 -89.41 0.00 0.00 -104.17 0.00 0.00 33.91 0.00 0.00 92.88 0.00 0.00 160.69 0.00 0.00 173.17 0.00 0.00 -92.65 0.00 0.00 -179.77 0.00 0.00 -175.31 0.00 0.00 90.01 0.00 0.00 179.95 0.00 0.00 177.39 0.00 0.00
